<?xml version="1.0" encoding="utf-8"?>
<!-- Generator: Adobe Illustrator 22.0.1, SVG Export Plug-In . SVG Version: 6.00 Build 0)  -->
<svg version="1.1" id="Layer_1" xmlns="http://www.w3.org/2000/svg" xmlns:xlink="http://www.w3.org/1999/xlink" x="0px" y="0px"
	 viewBox="0 0 147.7 326" style="enable-background:new 0 0 147.7 326;" xml:space="preserve">
<style type="text/css">
	.st0{fill:none;}
	.st1{opacity:0.2;}
	.st2{opacity:0.5;}
	.st3{font-family:'GrandHotel-Regular';}
	.st4{font-size:35.8389px;}
	.st5{fill:#00E8C6;}
	.st6{opacity:0.5;fill:url(#SVGID_1_);}
	.st7{fill:#404B52;}
</style>
<rect x="-314.3" y="40.1" class="st0" width="400" height="179.6"/>
<rect x="-309" y="40.1" class="st0" width="400" height="179.6"/>
<g>
	<g class="st1">
		<rect x="11.2" y="11.2" transform="matrix(0.9852 -0.1716 0.1716 0.9852 -11.2442 13.3722)" width="121" height="121"/>
		
			<rect x="11.2" y="11.2" transform="matrix(0.9852 -0.1716 0.1716 0.9852 -11.2442 13.3722)" class="st2" width="121" height="121"/>
		<text transform="matrix(0.9852 -0.1716 0.1716 0.9852 48.3603 80.8286)"><tspan x="0" y="0" class="st3 st4">Sí se</tspan><tspan x="-10.4" y="29" class="st3 st4">puede!</tspan></text>
		<path d="M105.9,37.1c1.4-1.8,2.7-5.4,0.1-6.9c-2.2-1.3-4.4,0-6.5,1.4c0.8-3.9,0.9-8.2-4.6-7.3c-7.1,1.1-7.1,9.5-5.6,14.8
			c0.5,1.6,2.8,1,2.5-0.6c-0.7-3.5-1.9-7.5,1.2-10.2c1.8-1.5,4.9-1.8,4.4,1.6c-0.3,1.5-0.9,3-1.3,4.5c-0.3,1.1,0.9,2.1,2,1.5
			c1.5-0.8,2.8-1.9,4.2-2.7c0.4-0.2,2.7-1.6,2.5,0.2c-0.1,0.8-0.7,1.6-1.2,2.3c-1.2,1.7-2.9,2.9-4.5,4c-0.9,0.6-6.2,3.4-7.1,1.2
			c-0.4-0.9-2-0.9-1.9,0.2c0.2,3,3.9,3.2,6.3,2.6C100,42.9,103.6,40.1,105.9,37.1z"/>
		<path d="M77.7,23.3c-1.8,0.6-2.2,2.1-2.2,3.7c-0.9-0.7-2-1.2-3.4-1.4c-2.4-0.4-3.6,2-4,3.9c-1.1,5.6,5.5,11,10.6,11.4
			c0.6,0,1-0.2,1.2-0.5c1-0.1,1.8-1.3,2.4-2.5c1.2-2.8,1.7-6,1.2-9C83,26.1,81.2,22.2,77.7,23.3z M81.4,30.9c0.2,1-0.2,2.2-0.4,3.3
			c-0.1,0.5-0.6,3.9-1.4,4.2c-0.2-0.2-0.4-0.3-0.7-0.4c-2.7-0.6-7.4-2.9-8.2-5.8c-0.3-1.1-0.5-3.3,0.7-4c1.8-1.1,4.1,2.3,4.8,3.5
			c0.7,1.2,2.6,0.7,2.3-0.7c-0.3-1.6-1-3.4-0.5-5c0.6-2.2,2.7,1.8,2.8,2.1C81.2,28.9,81.3,29.9,81.4,30.9z"/>
		<path d="M107.4,287.7c-3.5,0-3.4,5.5,0.1,5.4C110.9,293.1,110.8,287.7,107.4,287.7z"/>
		<path d="M131.5,284.3c-3.7,0-3.7,5.8,0.1,5.8C135.2,290,135.2,284.2,131.5,284.3z"/>
		<path d="M144.3,299.2c-5.6,8.7-8.4,18.1-19,22.3c-12.3,4.9-21.7-7.5-27-16.7c-1-1.7-3.4-0.2-2.5,1.5c5.1,10.6,13.7,23.3,27.3,21.2
			c12-1.8,24.3-14.2,26.4-26.3C149.9,298.2,146,296.4,144.3,299.2z"/>
	</g>
	<g>
		<g>
			<rect x="9.5" y="9.5" transform="matrix(0.9852 -0.1716 0.1716 0.9852 -10.9732 13.05)" class="st5" width="121" height="121"/>
			
				<linearGradient id="SVGID_1_" gradientUnits="userSpaceOnUse" x1="92.6002" y1="640.6055" x2="229.5392" y2="640.6055" gradientTransform="matrix(0.9995 -3.027392e-02 3.027392e-02 0.9995 -110.3977 -565.4438)">
				<stop  offset="0" style="stop-color:#404B52"/>
				<stop  offset="0.6715" style="stop-color:#FFFFFF"/>
				<stop  offset="1" style="stop-color:#404B52"/>
			</linearGradient>
			<polygon class="st6" points="140,119.2 20.8,140 0,20.8 119.2,0 			"/>
			<text transform="matrix(0.9852 -0.1716 0.1716 0.9852 46.632 79.1002)"><tspan x="0" y="0" class="st7 st3 st4">Sí se</tspan><tspan x="-10.4" y="29" class="st7 st3 st4">puede!</tspan></text>
			<g>
				<path class="st7" d="M104.2,35.4c1.4-1.8,2.7-5.4,0.1-6.9c-2.2-1.3-4.4,0-6.5,1.4c0.8-3.9,0.9-8.2-4.6-7.3
					c-7.1,1.1-7.1,9.5-5.6,14.8c0.5,1.6,2.8,1,2.5-0.6c-0.7-3.5-1.9-7.5,1.2-10.2c1.8-1.5,4.9-1.8,4.4,1.6c-0.3,1.5-0.9,3-1.3,4.5
					c-0.3,1.1,0.9,2.1,2,1.5c1.5-0.8,2.8-1.9,4.2-2.7c0.4-0.2,2.7-1.6,2.5,0.2c-0.1,0.8-0.7,1.6-1.2,2.3c-1.2,1.7-2.9,2.9-4.5,4
					c-0.9,0.6-6.2,3.4-7.1,1.2c-0.4-0.9-2-0.9-1.9,0.2c0.2,3,3.9,3.2,6.3,2.6C98.3,41.1,101.9,38.3,104.2,35.4z"/>
				<path class="st7" d="M76,21.5c-1.8,0.6-2.2,2.1-2.2,3.7c-0.9-0.7-2-1.2-3.4-1.4c-2.4-0.4-3.6,2-4,3.9c-1.1,5.6,5.5,11,10.6,11.4
					c0.6,0,1-0.2,1.2-0.5c1-0.1,1.8-1.3,2.4-2.5c1.2-2.8,1.7-6,1.2-9C81.3,24.4,79.5,20.4,76,21.5z M79.7,29.1
					c0.2,1-0.2,2.2-0.4,3.3c-0.1,0.5-0.6,3.9-1.4,4.2c-0.2-0.2-0.4-0.3-0.7-0.4c-2.7-0.6-7.4-2.9-8.2-5.8c-0.3-1.1-0.5-3.3,0.7-4
					c1.8-1.1,4.1,2.3,4.8,3.5c0.7,1.2,2.6,0.7,2.3-0.7c-0.3-1.6-1-3.4-0.5-5c0.6-2.2,2.7,1.8,2.8,2.1C79.4,27.2,79.6,28.2,79.7,29.1
					z"/>
			</g>
			<g>
				<path class="st7" d="M105.6,286c-3.5,0-3.4,5.5,0.1,5.4C109.2,291.3,109.1,285.9,105.6,286z"/>
				<path class="st7" d="M129.7,282.5c-3.7,0-3.7,5.8,0.1,5.8C133.5,288.3,133.4,282.5,129.7,282.5z"/>
				<path class="st7" d="M142.6,297.5c-5.6,8.7-8.4,18.1-19,22.3c-12.3,4.9-21.7-7.5-27-16.7c-1-1.7-3.4-0.2-2.5,1.5
					c5.1,10.6,13.7,23.3,27.3,21.2c12-1.8,24.3-14.2,26.4-26.3C148.2,296.5,144.3,294.7,142.6,297.5z"/>
			</g>
		</g>
	</g>
</g>
</svg>
