<?xml version="1.0" encoding="utf-8"?>
<!-- Generator: Adobe Illustrator 22.0.1, SVG Export Plug-In . SVG Version: 6.00 Build 0)  -->
<svg version="1.1" id="Layer_1" xmlns="http://www.w3.org/2000/svg" xmlns:xlink="http://www.w3.org/1999/xlink" x="0px" y="0px"
	 viewBox="0 0 174 229" style="enable-background:new 0 0 174 229;" xml:space="preserve">
<style type="text/css">
	.st0{fill:#C4C5C7;}
	.st1{fill:#FFFFFF;}
	.st2{fill:#434040;}
	.st3{font-family:'DJBMessyAmandaGoesBold';}
	.st4{font-size:23.7558px;}
	.st5{font-size:22.0588px;}
	.st6{fill:#AAD829;}
</style>
<g>
	<g>
		<path class="st0" d="M159.2,180c1.5,11,3.8,21.8,5.2,32.8l0.5,4.2l-3-0.2c-23.1-1.9-46.1-5.2-69.2-6.4c-15.6-0.8-31.2-1.3-46.8-1
			c-4.9,0.1-9.8,0.4-14.8,0.6c0.1,1,0.2,1.9,0.3,2.9c0.2,2.9,0.5,5.8,1.1,8.7c0.1,0.7,0.5,1.8,0.7,3.1c9.3-2.8,19.9-2.8,29.3-3.6
			c12.9-1,25.9-2.3,38.8-3.2c23-1.7,46-1.3,68.8,2.1c-3.1-14.4-2.4-29.5-4.3-44.1c-2.1-15.8-4.8-31.5-6.2-47.3
			c-0.9-10.4-1.7-21.2-2.1-32.2c-0.5,8.3-0.9,16.7-1,25C156.1,140.9,156.5,160.6,159.2,180z"/>
		<path class="st1" d="M110,18.8c0.1-1.3,0.6-2.6,0.9-3.7c0.2-0.8,0.3-1.9,0.7-2.9c-1.1-0.1-2.2-0.3-3.2-0.5
			c-0.2,0.8-0.6,1.7-0.9,2.5c-0.6,1.6-1.2,2.9-2.5,4C106.7,18.4,108.4,18.6,110,18.8z"/>
		<path class="st1" d="M93.1,20.5c-8.1-0.9-16.1-2-24.2-2.9c0.1,0.1,0.1,0.3,0.1,0.4c0.4,2.4,0.3,4.8,0.3,7.2
			c12.4,1.4,24.9,3.2,37.3,4.4c0.4-2.4,0.6-4.8,0.8-7.3C102.7,21.6,97.9,21,93.1,20.5z"/>
		<path class="st1" d="M102,5.6c-2-1.4-4.3-2.2-6.7-2.5c-2.8-0.3-5.7-0.2-8.5,0.6c1.8,0.1,3.5,0.3,5.1,0.5C95.2,4.6,98.6,5,102,5.6z
			"/>
		<path class="st1" d="M6.3,109.6c-1,19.4-1.5,38.8-0.8,58.3c0.4,10.6,0.4,21.2,1.5,31.7c0.3,2.8,0.8,5.6,1.2,8.5
			c27.4-4.8,57.7-2.7,84.8-1.2c22.4,1.2,45.4,2.4,67.9,5.4c-6.2-30.2-10-59.9-9.2-91.3c0.7-29.7,1.3-61.8,6.9-91.6
			c-5.3-0.9-10.6-1.9-15.9-2.6c-10.7-1.4-21.5-2.8-32.2-4.2c0.1,3-0.2,6-0.7,9c-0.2,1-0.9,1.7-1.9,1.6c-13.7-0.7-27.3-2.2-40.9-4.1
			c-1.2-0.2-1.9-1.1-1.9-2.3c0-3.1,0.2-6.3,1.5-9.2c0.1-0.2,0.2-0.3,0.3-0.4c-17.2-2.1-34.4-4-51.7-4.9c-0.4,13.1-2.6,26.4-3.9,39.2
			C9.3,70.9,7.3,90.2,6.3,109.6z M29.3,91.1c-0.7-0.4-1.1-0.9-1.6-1.4c-0.2-0.2-0.2-0.5,0-0.6c1.6-1.2,3.3-1.5,5.3-1
			c2.5,0.5,2.3,4.1-0.4,4C31.4,91.9,30.3,91.7,29.3,91.1z M28.4,108.2c-0.6-0.3-1.2-0.8-1.3-1.5c-0.1-1.7,2.1-2.4,3.5-2.2
			c1.6,0.3,2.7,2.5,1.1,3.6C30.6,108.8,29.6,108.9,28.4,108.2z M27,124.4c-1.1-0.2-1.8-0.6-2.2-1.6c-0.4-0.9,0.2-1.8,1.1-2
			c0.5-0.1,0.9-0.2,1.5-0.2C29.9,120.7,29.4,124.8,27,124.4z M26.9,144.9c0,0-0.1,0.1-0.1,0.1c-0.3,0.3-0.7,0.4-1.1,0.5
			c-0.2,0.1-0.4,0.2-0.5,0.2c-1.7,0.7-2.7-1-2.2-2.2c0-0.5,0.2-1.1,0.7-1.6c0.6-0.6,1.4-0.8,2.2-0.7c0.3,0,0.6,0,1,0.1
			c0.8,0.4,1.3,1.1,1.2,1.9C28,144,27.5,144.5,26.9,144.9z"/>
		<path class="st1" d="M93.5,16.9c3.7,0.4,7.4,0.8,11.1,1.3c0,0-0.1,0-0.1-0.1c-0.2-1.7,0.1-3.1,0.7-4.7c0.3-0.7,0.5-1.4,0.8-2
			c-4.8-1-9.6-2.2-14.6-2.5C87,8.4,81.8,9.1,77.1,8.5c-0.2,0.8-0.6,1.6-0.8,2.2c-0.4,1.3-0.8,2.9-1.8,4
			C80.8,15.4,87.1,16.1,93.5,16.9z"/>
		<path class="st1" d="M74.2,10c0.2-0.5,0.4-1.2,0.7-1.8c-0.5-0.1-1-0.2-1.4-0.4c-0.9,2.1-2.5,4.1-3.7,6c-0.1,0.1-0.2,0.2-0.2,0.4
			c1.2,0.1,2.3,0.3,3.5,0.4C72.7,13,73.7,11.3,74.2,10z"/>
		<g>
			<path class="st2" d="M174,219.5c-3-29.2-6-58.3-9.2-87.4c-3.2-28.7-0.6-57.7-2.9-86.4c0.5-5.2,1-10.3,1.4-15.5l0.2-4.5l-4-0.7
				c-15.1-2.5-30.3-4.2-45.5-5.8c0.4-1.1,0.5-2.4,0.7-3.2c0.2-1.2,0.7-2.7,0.4-3.9c0.6-0.6,0.8-1.7-0.1-2.2c-2.5-1.4-5.2-2.4-8-3.1
				c-1.1-3-7.5-5.7-9.3-6.1c-4.3-1-12.9-1.1-16.2,3.1c-1.9,0.1-3.7,0.3-5.4,0.8c-0.7-0.3-1.4-0.4-2.2-0.2c-1.1,0.2-2.2-0.2-3,0.6
				c-0.4,0.4-0.6,0.9-0.4,1.4c-1.2,1.5-2,3.3-2.9,5c-0.4,0.8-1.2,1.7-1.5,2.6c-8-0.9-16-1.8-24-2.7c-8.9-1-17.9-1.9-26.8-1.7L11,9.5
				l-0.5,2.6C7.8,26.4,7.1,41.5,5.7,55.6c-2.2,20.8-4.1,41.6-5.1,62.5c-1,20.6-0.6,41.2,0.2,61.8c0.3,9.2,0.3,19.6,2.5,29.1l0.6,2.2
				l4.9-0.1c6-0.1,12.1-0.5,18.1-0.9c-0.2,2,0.1,4.2,0.3,5.9c0.3,3.4,0.7,7,1.9,10.3c-0.3,0.5,0,1.3,0.6,1.5
				c0.3,0.5,0.9,0.9,1.5,0.9c0.9,0.1,1.5-0.2,1.8-0.7c8.6,0.2,17.5-1.7,26-2.5c12.9-1.2,25.9-2.2,38.8-3.4c14.2-1.3,28.5-1.9,42.8-2
				c10-0.1,20.1,1.2,30.1,0.6C171.6,222.3,174.2,221.6,174,219.5z M108.4,11.7c1.1,0.2,2.2,0.4,3.2,0.5c-0.4,0.9-0.5,2.1-0.7,2.9
				c-0.3,1-0.8,2.4-0.9,3.7c-1.7-0.2-3.3-0.4-5-0.6c1.3-1.1,2-2.4,2.5-4C107.8,13.4,108.2,12.6,108.4,11.7z M106.7,29.6
				c-12.5-1.2-24.9-2.9-37.3-4.4c0-2.4,0-4.9-0.3-7.2c0-0.2-0.1-0.3-0.1-0.4c8.1,1,16.2,2,24.2,2.9c4.8,0.6,9.6,1.2,14.3,1.8
				C107.3,24.7,107.1,27.1,106.7,29.6z M95.3,3.1c2.4,0.2,4.8,1.1,6.7,2.5c-3.4-0.6-6.8-1-10.1-1.3c-1.6-0.2-3.3-0.4-5.1-0.5
				C89.6,2.9,92.5,2.9,95.3,3.1z M76.3,10.7c0.2-0.6,0.6-1.4,0.8-2.2c4.7,0.5,9.9-0.1,14.4,0.2c4.9,0.4,9.8,1.6,14.6,2.5
				c-0.3,0.7-0.5,1.4-0.8,2c-0.6,1.6-1,3-0.7,4.7c0,0,0,0.1,0.1,0.1c-3.7-0.4-7.5-0.8-11.2-1.3c-6.3-0.8-12.6-1.5-19-2.2
				C75.5,13.7,75.9,12,76.3,10.7z M69.8,13.8c1.2-1.9,2.8-3.9,3.7-6c0.5,0.1,1,0.2,1.4,0.4c-0.3,0.6-0.5,1.3-0.7,1.8
				c-0.5,1.4-1.5,3-1.2,4.6c-1.2-0.1-2.3-0.3-3.5-0.4C69.6,14,69.7,13.9,69.8,13.8z M8.2,208c-0.5-2.8-0.9-5.6-1.2-8.5
				c-1.1-10.5-1.2-21.1-1.5-31.7c-0.6-19.4-0.2-38.9,0.8-58.3c1-19.4,3.1-38.7,5.1-58.1c1.3-12.8,3.5-26.1,3.9-39.2
				c17.3,0.9,34.5,2.8,51.7,4.9c-0.1,0.1-0.2,0.2-0.3,0.4c-1.3,2.9-1.5,6-1.5,9.2c0,1.2,0.7,2.1,1.9,2.3c13.6,1.8,27.2,3.4,40.9,4.1
				c1,0,1.8-0.6,1.9-1.6c0.5-3,0.8-6,0.7-9c10.7,1.3,21.5,2.7,32.2,4.2c5.3,0.7,10.6,1.6,15.9,2.6c-5.6,29.8-6.2,61.9-6.9,91.6
				c-0.7,31.4,3,61.1,9.2,91.3c-22.5-3-45.6-4.2-67.9-5.4C65.9,205.4,35.6,203.2,8.2,208z M101.4,217.9c-12.9,1-25.9,2.2-38.8,3.2
				c-9.4,0.8-20.1,0.8-29.3,3.6c-0.2-1.2-0.6-2.4-0.7-3.1c-0.6-2.9-0.9-5.8-1.1-8.7c-0.1-1-0.1-2-0.3-2.9c4.9-0.3,9.9-0.6,14.8-0.6
				c15.6-0.3,31.2,0.2,46.8,1c23.1,1.1,46.1,4.4,69.2,6.4l3,0.2l-0.5-4.2c-1.4-10.9-3.7-21.8-5.2-32.8c-2.7-19.4-3.1-39-2.7-58.6
				c0.1-8.3,0.5-16.7,1-25c0.4,10.9,1.2,21.8,2.1,32.2c1.4,15.9,4.2,31.6,6.2,47.3c1.9,14.6,1.2,29.8,4.3,44.1
				C147.4,216.6,124.4,216.2,101.4,217.9z"/>
			<path class="st2" d="M27.8,89.8c-2-0.4-3.7-0.2-5.3,1c-0.2,0.2-0.2,0.5,0,0.6c0.6,0.5,1,1,1.6,1.4c1,0.6,2.2,0.8,3.3,0.9
				C30.1,93.9,30.3,90.4,27.8,89.8z"/>
			<path class="st2" d="M25.5,106.3c-1.4-0.2-3.6,0.5-3.5,2.2c0.1,0.7,0.7,1.2,1.3,1.5c1.2,0.7,2.2,0.5,3.3-0.2
				C28.2,108.8,27.1,106.6,25.5,106.3z"/>
			<path class="st2" d="M23.6,123.8c-0.6,0-0.9,0.1-1.5,0.2c-0.9,0.3-1.4,1.1-1.1,2c0.4,1,1.1,1.4,2.2,1.6
				C25.7,128,26.1,123.9,23.6,123.8z"/>
			<path class="st2" d="M24.8,144.9c0.1-0.9-0.4-1.6-1.2-1.9c-0.3-0.1-0.6-0.1-1-0.1c-0.8-0.1-1.6,0.1-2.2,0.7
				c-0.5,0.5-0.7,1.1-0.7,1.6c-0.5,1.3,0.5,2.9,2.2,2.2c0.2-0.1,0.4-0.1,0.5-0.2c0.4-0.1,0.8-0.2,1.1-0.5c0,0,0.1-0.1,0.1-0.1
				C24.3,146.1,24.7,145.6,24.8,144.9z"/>
			<path class="st2" d="M24.3,162.3c-2.1-0.1-3.7,0.4-5.1,1.8c-0.2,0.2-0.1,0.5,0.1,0.6c0.6,0.4,1.1,0.9,1.8,1.2
				c1.1,0.5,2.3,0.5,3.4,0.4C27.2,166,26.8,162.5,24.3,162.3z"/>
			<path class="st2" d="M24.5,179c-1.4,0-3.5,1-3.1,2.7c0.2,0.7,0.8,1.1,1.5,1.3c1.2,0.5,2.3,0.2,3.2-0.7
				C27.6,181,26.1,179,24.5,179z"/>
		</g>
	</g>
	<g>
		<text transform="matrix(0.9932 0.1163 -0.1163 0.9932 42.1289 49.6127)"><tspan x="0" y="0" class="st2 st3 st4">Compras de</tspan><tspan x="4.9" y="19.2" class="st2 st3 st4">la semana</tspan></text>
	</g>
	<g>
		<text transform="matrix(0.9991 4.297000e-02 -4.297000e-02 0.9991 35.0687 98.5858)" class="st2 st3 st5">tomates</text>
	</g>
	<g>
		<text transform="matrix(0.9991 4.297000e-02 -4.297000e-02 0.9991 34.8523 120.7524)" class="st2 st3 st5">huevos</text>
	</g>
	<g>
		<text transform="matrix(0.9991 4.297000e-02 -4.297000e-02 0.9991 34.6508 140.5619)" class="st2 st3 st5">avena</text>
	</g>
	<g>
		<text transform="matrix(0.9991 4.297000e-02 -4.297000e-02 0.9991 32.6973 161.4387)" class="st2 st3 st5">plátanos</text>
	</g>
	<g>
		<text transform="matrix(0.9991 4.297000e-02 -4.297000e-02 0.9991 34.2757 183.7606)" class="st2 st3 st5">atún</text>
	</g>
	<path class="st6" d="M100.4,106.7c-3.3,1.2-5.8,3.7-8,6.3c-2,2.4-3.9,5.2-5.2,8.1c-0.1-0.1-0.1-0.2-0.2-0.3
		c-0.4-0.6-0.7-1.2-0.9-1.8c-0.5-1.2-0.7-2.5-0.8-3.8c0-1.4-2.2-1.5-2.2,0c0,1.5,0.3,3.1,0.8,4.5c0.4,1.1,1.2,3.2,2.5,3.5
		c0.6,0.1,1.2-0.2,1.2-0.9c0,0,0-0.1,0-0.1c0.8-1.3,1.5-2.7,2.3-4.1c0.9-1.5,1.8-3,2.9-4.4c2.1-2.7,4.8-4.8,7.7-6.5
		C101.1,107.2,100.9,106.5,100.4,106.7z"/>
	<path class="st6" d="M114.4,147.4c-3.3,1.2-5.8,3.7-8,6.3c-2,2.4-3.9,5.2-5.2,8.1c-0.1-0.1-0.1-0.2-0.2-0.3
		c-0.4-0.6-0.7-1.2-0.9-1.8c-0.5-1.2-0.7-2.5-0.8-3.8c0-1.4-2.2-1.5-2.2,0c0,1.5,0.3,3.1,0.8,4.5c0.4,1.1,1.2,3.2,2.5,3.5
		c0.6,0.1,1.2-0.2,1.2-0.9c0,0,0-0.1,0-0.1c0.8-1.3,1.5-2.7,2.3-4.1c0.9-1.5,1.8-3,2.9-4.4c2.1-2.7,4.8-4.8,7.7-6.5
		C115.1,147.9,114.9,147.3,114.4,147.4z"/>
</g>
</svg>
